<svg width="29" height="22" viewBox="0 0 29 22" fill="none" xmlns="http://www.w3.org/2000/svg">
<path d="M4.73026 4.62205V5.40945M4.73026 4.62205H1M4.73026 4.62205V3.71654M9.88158 21H5.86353M9.88158 21L11.2582 20.9213M9.88158 21V3.3622M23.3816 18.6378L21.2944 18.9528M23.3816 18.6378V14.5433H25.2467V18.2562M23.3816 18.6378L25.2467 18.2562M4.73026 1L5.86353 1.43307M4.73026 1L3.7977 1.90551M4.73026 1V1.1378M4.73026 1L28 7.09252M1 4.62205L2.24342 5.40945M1 4.62205L1.93257 3.71654M4.73026 6.98425L4.55263 20.9213L5.86353 21M4.73026 6.98425V6.19685M4.73026 6.98425L3.48684 6.19685M5.86353 1.43307V21M5.86353 1.43307L9.88158 2.32476M9.88158 2.32476L11.6579 2.8138M9.88158 2.32476V3.3622M11.6579 2.8138L19.8289 4.88291M11.6579 2.8138L11.2582 3.84243M11.2582 20.9213L20.2435 19.189M11.2582 20.9213V3.84243M19.8289 4.88291L21.4276 5.29405M19.8289 4.88291L20.2435 6.19685M20.2435 19.189L21.2944 18.9528M20.2435 19.189V6.19685M21.4276 5.29405L21.2944 18.9528M21.4276 5.29405L26.8454 6.68732M25.2467 18.2562L26.8454 17.9291M26.8454 6.68732L27.4227 6.83579M26.8454 6.68732V7.46331M26.8454 17.9291L27.4227 17.811M26.8454 17.9291V7.6958M27.4227 6.83579L28 6.98425V7.09252M27.4227 6.83579V7.6958M27.4227 17.811L28 17.6929V8.71654M27.4227 17.811V7.97976M4.73026 2.81102L28 8.71654M4.73026 2.81102V3.71654M4.73026 2.81102H2.86513M4.73026 2.81102V2.58465M4.73026 2.81102C4.84243 2.69685 4.81442 2.4433 4.76852 2.25984M28 8.71654V8.55413M4.73026 6.19685H3.48684M4.73026 6.19685V5.40945M3.48684 6.19685L2.24342 5.40945M4.73026 5.40945H2.24342M4.73026 3.71654H1.93257M1.93257 3.71654L2.86513 2.81102M2.86513 2.81102L3.7977 1.90551M4.73026 1.90551H3.7977M4.73026 1.90551V1.74803M4.73026 1.90551V2.0187M4.73026 1.90551L26.9453 7.78767M4.73026 1.27559L28 7.41732M4.73026 1.27559V1.43307M4.73026 1.27559V1.1378M28 7.41732V7.57972M28 7.41732V7.20079M28 8.06693V8.12598M28 8.06693L26.9453 7.78767M28 8.06693V7.98573M4.73026 1.59055V1.74803M4.73026 1.59055V1.43307M4.73026 1.59055L26.9453 7.46331M28 7.74213V7.90453M28 7.74213V7.57972M28 7.74213L27.134 7.5132M28 8.39173L4.73026 2.35827M28 8.39173V8.55413M28 8.39173V8.22933M4.73026 2.35827V2.58465M4.73026 2.35827V2.13189M4.73026 2.58465L28 8.55413M28 8.22933V8.12598M28 8.22933L27.5115 8.00225M28 8.22933L27.2451 8.03151M4.73026 2.13189V2.0187M4.73026 2.13189L26.9453 7.95297M4.73026 2.13189C4.74274 2.16689 4.75627 2.21087 4.76852 2.25984M4.73026 1.74803L26.8454 7.59905M28 7.90453V7.98573M28 7.90453L27.192 7.69075M28 7.57972L4.73026 1.43307M4.73026 1.43307C12.7947 3.56328 8.11597 2.87184 4.76852 2.25984M4.73026 1.1378L28 7.20079M28 7.20079V7.09252M4.73026 2.0187L9.88158 3.3622M9.88158 3.3622L11.2582 3.84243M11.2582 3.84243L15.9655 4.97638L20.2435 6.19685M20.2435 6.19685L21.2944 6.3937L26.3125 7.6958M28 8.12598L27.5115 8.00225M27.5115 8.00225L27.4227 7.97976M26.9453 7.85883L26.7566 7.81102L26.5789 7.76493L26.3125 7.6958M26.9453 7.85883L27.134 7.90664L27.4227 7.97976M26.9453 7.85883L27.2451 8.03151M27.2451 8.03151L26.9453 7.95297M27.4227 7.97976C26.8454 7.83352 27.0452 7.97915 26.9453 7.95297M27.4227 7.97976V7.6958M26.3125 7.6958L26.9453 7.78767M26.8454 7.6958L27.3339 7.81102L28 7.98573M26.8454 7.6958V7.59905M27.9112 7.78767L27.4227 7.6958M27.134 7.5132L26.9453 7.57972C26.9802 7.61505 27.0784 7.68671 27.192 7.69075M27.134 7.5132L26.9453 7.46331M27.192 7.69075L26.8454 7.59905M26.9453 7.46331C26.912 7.41806 26.8454 7.35472 26.8454 7.46331M26.9453 7.46331L26.8454 7.59905M26.8454 7.46331V7.59905M12.6349 9.66142L18.7187 10.5669M14.1891 12.4173L17.7862 12.7717M27.4227 7.6958C26.7723 7.57972 27.1388 7.57972 27.192 7.57972C27.2344 7.57972 27.3635 7.6571 27.4227 7.6958Z" stroke="white"/>
</svg>
