<svg width="29" height="25" viewBox="0 0 29 25" fill="none" xmlns="http://www.w3.org/2000/svg">
<mask id="mask0_374_4471" style="mask-type:alpha" maskUnits="userSpaceOnUse" x="0" y="0" width="29" height="25">
<rect width="28.3333" height="25" fill="#D9D9D9"/>
</mask>
<g mask="url(#mask0_374_4471)">
<path d="M6.90625 17.8125C7.90972 17.1355 9.03125 16.6014 10.2708 16.2105C11.5104 15.8202 12.809 15.625 14.1667 15.625C15.5243 15.625 16.8229 15.8202 18.0625 16.2105C19.3021 16.6014 20.4236 17.1355 21.4271 17.8125C22.1157 17.1007 22.6521 16.2934 23.0362 15.3907C23.4195 14.4879 23.6111 13.5243 23.6111 12.5C23.6111 10.191 22.6915 8.22469 20.8522 6.60108C19.0121 4.97817 16.7836 4.16671 14.1667 4.16671C11.5498 4.16671 9.32167 4.97817 7.48236 6.60108C5.64227 8.22469 4.72222 10.191 4.72222 12.5C4.72222 13.5243 4.91426 14.4879 5.29833 15.3907C5.68162 16.2934 6.21759 17.1007 6.90625 17.8125ZM14.1667 13.5417C13.0058 13.5417 12.0267 13.1903 11.2294 12.4875C10.433 11.7841 10.0347 10.9202 10.0347 9.89587C10.0347 8.87157 10.433 8.00768 11.2294 7.30421C12.0267 6.60143 13.0058 6.25004 14.1667 6.25004C15.3275 6.25004 16.3066 6.60143 17.1039 7.30421C17.9004 8.00768 18.2986 8.87157 18.2986 9.89587C18.2986 10.9202 17.9004 11.7841 17.1039 12.4875C16.3066 13.1903 15.3275 13.5417 14.1667 13.5417ZM14.1667 22.9167C12.5336 22.9167 10.9988 22.6431 9.5625 22.0959C8.12616 21.5493 6.87674 20.8073 5.81424 19.8698C4.75174 18.9323 3.91079 17.8299 3.29139 16.5625C2.6712 15.2952 2.36111 13.941 2.36111 12.5C2.36111 11.0591 2.6712 9.7049 3.29139 8.43754C3.91079 7.17018 4.75174 6.06775 5.81424 5.13025C6.87674 4.19275 8.12616 3.45039 9.5625 2.90317C10.9988 2.35664 12.5336 2.08337 14.1667 2.08337C15.7998 2.08337 17.3345 2.35664 18.7708 2.90317C20.2072 3.45039 21.4566 4.19275 22.5191 5.13025C23.5816 6.06775 24.4225 7.17018 25.0419 8.43754C25.6621 9.7049 25.9722 11.0591 25.9722 12.5C25.9722 13.941 25.6621 15.2952 25.0419 16.5625C24.4225 17.8299 23.5816 18.9323 22.5191 19.8698C21.4566 20.8073 20.2072 21.5493 18.7708 22.0959C17.3345 22.6431 15.7998 22.9167 14.1667 22.9167ZM14.1667 20.8334C15.2095 20.8334 16.1933 20.699 17.1181 20.4303C18.0428 20.1608 18.8889 19.7743 19.6563 19.2709C18.8889 18.7674 18.0428 18.3809 17.1181 18.1115C16.1933 17.8427 15.2095 17.7084 14.1667 17.7084C13.1238 17.7084 12.14 17.8427 11.2153 18.1115C10.2905 18.3809 9.44444 18.7674 8.67708 19.2709C9.44444 19.7743 10.2905 20.1608 11.2153 20.4303C12.14 20.699 13.1238 20.8334 14.1667 20.8334ZM14.1667 11.4584C14.6782 11.4584 15.1013 11.3108 15.4358 11.0157C15.7703 10.7205 15.9375 10.3473 15.9375 9.89587C15.9375 9.44449 15.7703 9.07122 15.4358 8.77608C15.1013 8.48094 14.6782 8.33337 14.1667 8.33337C13.6551 8.33337 13.2321 8.48094 12.8976 8.77608C12.5631 9.07122 12.3958 9.44449 12.3958 9.89587C12.3958 10.3473 12.5631 10.7205 12.8976 11.0157C13.2321 11.3108 13.6551 11.4584 14.1667 11.4584Z" fill="white"/>
</g>
</svg>
