<svg width="21" height="20" viewBox="0 0 21 20" fill="none" xmlns="http://www.w3.org/2000/svg">
<path d="M9.45155 16.6736C9.53233 16.6737 9.6123 16.6949 9.68689 16.7359C9.76147 16.7769 9.82922 16.8369 9.88626 16.9125C9.9433 16.9882 9.98851 17.0779 10.0193 17.1766C10.0501 17.2753 10.0659 17.3811 10.0658 17.4878C10.0657 17.5946 10.0497 17.7003 10.0187 17.7989C9.98763 17.8975 9.94222 17.987 9.88502 18.0624C9.82782 18.1378 9.75994 18.1976 9.68527 18.2383C9.61059 18.279 9.53058 18.2999 9.4498 18.2998C9.28666 18.2995 9.13029 18.2135 9.01509 18.0608C8.89989 17.9081 8.83531 17.7012 8.83554 17.4855C8.83577 17.2699 8.9008 17.0632 9.01633 16.9109C9.13185 16.7586 9.28841 16.6733 9.45155 16.6736ZM19.0977 11.6458C19.0169 11.6457 18.9369 11.6246 18.8623 11.5836C18.7877 11.5427 18.7199 11.4828 18.6629 11.4072C18.6058 11.3316 18.5605 11.242 18.5297 11.1433C18.4988 11.0446 18.483 10.9389 18.483 10.8321C18.4831 10.7253 18.499 10.6196 18.53 10.521C18.561 10.4223 18.6063 10.3327 18.6635 10.2573C18.7206 10.1818 18.7885 10.122 18.8631 10.0812C18.9378 10.0404 19.0178 10.0195 19.0986 10.0196C19.2617 10.0197 19.4181 10.1055 19.5334 10.2581C19.6487 10.4107 19.7134 10.6176 19.7133 10.8332C19.7132 11.0489 19.6482 11.2556 19.5328 11.408C19.4174 11.5604 19.2608 11.6459 19.0977 11.6458M19.0977 8.31933C18.5933 8.31994 18.1097 8.58506 17.7531 9.05648C17.3965 9.52791 17.1959 10.1671 17.1954 10.8338C17.1954 11.1033 17.2295 11.3716 17.2961 11.633L11.0126 16.0548C10.8383 15.7204 10.6052 15.447 10.3333 15.2582C10.0613 15.0694 9.75872 14.9709 9.45155 14.971C8.72616 14.971 8.06553 15.5204 7.74527 16.3775L2.10056 12.4427C1.5038 12.0286 1.05754 10.7309 1.10479 9.54881C1.12929 8.93234 1.29029 8.4535 1.53617 8.26844C1.69193 8.15278 1.87918 8.16203 2.07868 8.29967L2.11543 8.32627C3.61171 9.36722 8.50654 12.7758 8.71304 12.9018C9.03067 13.0973 9.20742 13.176 9.74993 12.8359L19.8686 5.88003C20.0173 5.806 20.1906 5.61747 20.1906 5.33179C20.1906 4.93623 19.8808 4.78008 19.88 4.78008C19.3042 4.41575 18.4196 3.86867 17.5568 3.33431C15.7123 2.19273 13.6219 0.899635 12.704 0.263496C11.9112 -0.28474 11.2733 0.177907 11.1596 0.270436L10.9391 0.415013C6.80726 3.11571 1.27717 6.73592 0.962164 6.98922C0.39953 7.44261 0.050399 8.34593 0.0048983 9.46669C-0.0651028 11.2444 0.620033 13.0985 1.60092 13.7774L7.57027 17.8464C7.63603 18.4441 7.86228 18.9906 8.20769 19.386C8.5531 19.7814 8.99461 19.9993 9.45155 20C9.9506 19.9989 10.4294 19.7389 10.785 19.2761C11.1405 18.8132 11.3445 18.1844 11.353 17.5248L17.9278 12.8139C18.2603 13.1586 18.6742 13.3471 19.0977 13.3471C19.6021 13.3465 20.0857 13.0814 20.4423 12.61C20.799 12.1386 20.9995 11.4994 21 10.8327C20.9995 10.166 20.799 9.52675 20.4423 9.05532C20.0857 8.5839 19.6021 8.31879 19.0977 8.31817" fill="white" fill-opacity="0.88"/>
</svg>
