<svg width="21" height="21" viewBox="0 0 21 21" fill="none" xmlns="http://www.w3.org/2000/svg">
<mask id="mask0_374_4476" style="mask-type:alpha" maskUnits="userSpaceOnUse" x="0" y="0" width="21" height="21">
<rect width="21" height="21" fill="#D9D9D9"/>
</mask>
<g mask="url(#mask0_374_4476)">
<path d="M4.37502 19.25C3.89377 19.25 3.48164 19.0788 3.13864 18.7364C2.79622 18.3934 2.62502 17.9813 2.62502 17.5V5.25C2.62502 4.76875 2.79622 4.35692 3.13864 4.0145C3.48164 3.6715 3.89377 3.5 4.37502 3.5H5.25002V1.75H7.00002V3.5H14V1.75H15.75V3.5H16.625C17.1063 3.5 17.5184 3.6715 17.8614 4.0145C18.2038 4.35692 18.375 4.76875 18.375 5.25V10.5H16.625V8.75H4.37502V17.5H10.5V19.25H4.37502ZM19.3594 14.875L17.5 13.0156L18.1344 12.3812C18.2948 12.2208 18.499 12.1406 18.7469 12.1406C18.9948 12.1406 19.199 12.2208 19.3594 12.3812L19.9938 13.0156C20.1542 13.176 20.2344 13.3802 20.2344 13.6281C20.2344 13.876 20.1542 14.0802 19.9938 14.2406L19.3594 14.875ZM12.25 20.125V18.2656L16.8875 13.6281L18.7469 15.4875L14.1094 20.125H12.25ZM4.37502 7H16.625V5.25H4.37502V7Z" fill="white"/>
</g>
</svg>
