<svg width="24" height="24" viewBox="0 0 24 24" fill="none" xmlns="http://www.w3.org/2000/svg">
<path d="M12 24C5.36471 24 0 18.6353 0 12C0 5.36471 5.36471 0 12 0C18.6353 0 24 5.36471 24 12C24 18.6353 18.6353 24 12 24ZM12 1.41176C6.14118 1.41176 1.41176 6.14118 1.41176 12C1.41176 17.8588 6.14118 22.5882 12 22.5882C17.8588 22.5882 22.5882 17.8588 22.5882 12C22.5882 6.14118 17.8588 1.41176 12 1.41176Z" fill="#2E2F31"/>
<path d="M17.1404 5.86035L18.1385 6.85917L6.85847 18.1392L5.86035 17.1411L17.1404 5.86035Z" fill="#2E2F31"/>
<path d="M6.85847 5.86035L18.1385 17.1404L17.1404 18.1392L5.86035 6.85917L6.85847 5.86035Z" fill="#2E2F31"/>
</svg>
