<svg width="24" height="24" viewBox="0 0 24 24" fill="none" xmlns="http://www.w3.org/2000/svg">
<path d="M24 4.50019V19.5002C24 20.3514 23.3512 21.0002 22.5 21.0002H21V7.38694L12 13.8519L3 7.38694V21.0002H1.5C0.64875 21.0002 0 20.3514 0 19.5002V4.50019C0 4.07419 0.1605 3.69919 0.42975 3.43369C0.569979 3.29338 0.736987 3.18271 0.920845 3.10824C1.1047 3.03377 1.30166 2.99702 1.5 3.00019H2.00025L12 10.2504L21.9998 3.00019H22.5C22.926 3.00019 23.301 3.16069 23.5703 3.43369C23.8395 3.69919 24 4.07419 24 4.50019Z" fill="black"/>
</svg>
