<svg width="28" height="28" viewBox="0 0 28 28" fill="none" xmlns="http://www.w3.org/2000/svg">
<rect width="28" height="28" fill="white"/>
<path d="M23.333 21.0003H20.9997V10.792L13.9997 15.167L6.99967 10.792V21.0003H4.66634V7.00033H6.06634L13.9997 11.9587L21.933 7.00033H23.333M23.333 4.66699H4.66634C3.37134 4.66699 2.33301 5.70533 2.33301 7.00033V21.0003C2.33301 21.6192 2.57884 22.2127 3.01643 22.6502C3.45401 23.0878 4.0475 23.3337 4.66634 23.3337H23.333C23.9518 23.3337 24.5453 23.0878 24.9829 22.6502C25.4205 22.2127 25.6663 21.6192 25.6663 21.0003V7.00033C25.6663 6.38149 25.4205 5.78799 24.9829 5.35041C24.5453 4.91282 23.9518 4.66699 23.333 4.66699V4.66699Z" fill="#2E2F31"/>
</svg>
