<svg width="24" height="24" viewBox="0 0 24 24" fill="none" xmlns="http://www.w3.org/2000/svg">
<path d="M20.4772 9C20.2104 9.00003 19.9463 9.05354 19.7005 9.15736C19.4548 9.26119 19.2323 9.41323 19.0463 9.6045L18.7515 9.90825L18.4537 9.6045C18.2677 9.41327 18.0452 9.26127 17.7994 9.15748C17.5536 9.05369 17.2896 9.00021 17.0228 9.00021C16.7559 9.00021 16.4919 9.05369 16.2461 9.15748C16.0003 9.26127 15.7778 9.41327 15.5917 9.6045C15.2124 9.99622 15.0002 10.5202 15.0002 11.0655C15.0002 11.6108 15.2124 12.1348 15.5917 12.5265L18.7515 15.75L21.9083 12.5265C22.2876 12.1348 22.4998 11.6108 22.4998 11.0655C22.4998 10.5202 22.2876 9.99622 21.9083 9.6045C21.7222 9.41323 21.4997 9.26119 21.254 9.15736C21.0082 9.05354 20.7441 9.00003 20.4772 9V9ZM1.5 22.5H3V18.75C3.00119 17.7558 3.39666 16.8027 4.09966 16.0997C4.80267 15.3967 5.7558 15.0012 6.75 15H11.25C12.2442 15.0012 13.1973 15.3967 13.9003 16.0997C14.6033 16.8027 14.9988 17.7558 15 18.75V22.5H16.5V18.75C16.4984 17.3581 15.9448 16.0237 14.9606 15.0394C13.9763 14.0552 12.6419 13.5016 11.25 13.5H6.75C5.3581 13.5016 4.02367 14.0552 3.03944 15.0394C2.05522 16.0237 1.50159 17.3581 1.5 18.75V22.5ZM9 3C9.74168 3 10.4667 3.21993 11.0834 3.63199C11.7001 4.04404 12.1807 4.62971 12.4645 5.31494C12.7484 6.00016 12.8226 6.75416 12.6779 7.48159C12.5333 8.20902 12.1761 8.8772 11.6517 9.40165C11.1272 9.9261 10.459 10.2833 9.73159 10.4279C9.00416 10.5726 8.25016 10.4984 7.56494 10.2145C6.87971 9.93072 6.29404 9.45007 5.88199 8.83339C5.46993 8.2167 5.25 7.49168 5.25 6.75C5.25 5.75544 5.64509 4.80161 6.34835 4.09835C7.05161 3.39509 8.00544 3 9 3M9 1.5C7.96165 1.5 6.94661 1.80791 6.08326 2.38478C5.2199 2.96166 4.54699 3.7816 4.14963 4.74091C3.75227 5.70022 3.6483 6.75582 3.85088 7.77422C4.05345 8.79262 4.55346 9.72808 5.28769 10.4623C6.02191 11.1965 6.95738 11.6966 7.97578 11.8991C8.99418 12.1017 10.0498 11.9977 11.0091 11.6004C11.9684 11.203 12.7883 10.5301 13.3652 9.66674C13.9421 8.80339 14.25 7.78835 14.25 6.75C14.25 5.35761 13.6969 4.02226 12.7123 3.03769C11.7277 2.05312 10.3924 1.5 9 1.5V1.5Z" fill="#2E2F31"/>
</svg>
