<svg width="123" height="121" viewBox="0 0 123 121" fill="none" xmlns="http://www.w3.org/2000/svg">
<g filter="url(#filter0_b_214_3188)">
<mask id="mask0_214_3188" style="mask-type:alpha" maskUnits="userSpaceOnUse" x="0" y="0" width="123" height="121">
<rect width="122.714" height="121" fill="#D9D9D9"/>
</mask>
<g mask="url(#mask0_214_3188)">
<path d="M62.9954 88.7773C63.3384 88.7773 63.6814 88.6963 64.0244 88.5344C64.3674 88.3724 64.6246 88.2104 64.7961 88.0484L106.985 48.2006C108.014 47.2288 108.766 46.1354 109.239 44.9205C109.709 43.7056 109.944 42.4908 109.944 41.2759C109.944 39.98 109.709 38.7441 109.239 37.5681C108.766 36.3953 108.014 35.3635 106.985 34.4726L85.119 13.8198C84.1757 12.8479 83.0833 12.1384 81.8416 11.6914C80.5965 11.2475 79.288 11.0256 77.916 11.0256C76.6297 11.0256 75.3434 11.2475 74.0572 11.6914C72.7709 12.1384 71.6133 12.8479 70.5843 13.8198L69.1694 15.1562L78.6877 24.2677C79.974 25.4016 80.9172 26.6974 81.5175 28.1553C82.1177 29.6131 82.4179 31.152 82.4179 32.7718C82.4179 36.1734 81.1968 39.0276 78.7546 41.3342C76.309 43.6441 73.2854 44.799 69.6839 44.799C67.9689 44.799 66.3191 44.5155 64.7344 43.9486C63.1463 43.3817 61.752 42.5313 60.5515 41.3974L50.9045 32.4073L28.395 53.6676C28.1378 53.9105 27.944 54.1746 27.8136 54.4597C27.6867 54.7415 27.6233 55.0444 27.6233 55.3684C27.6233 56.0163 27.8805 56.6027 28.395 57.1275C28.9095 57.6556 29.5098 57.9196 30.1958 57.9196C30.5388 57.9196 30.8818 57.8386 31.2248 57.6766C31.5678 57.5147 31.8251 57.3527 31.9966 57.1907L49.4897 40.6685L56.6927 47.4717L39.3282 63.994C39.071 64.2369 38.8772 64.4994 38.7468 64.7812C38.6199 65.0663 38.5565 65.3708 38.5565 65.6948C38.5565 66.3427 38.8137 66.9097 39.3282 67.3956C39.8427 67.8816 40.443 68.1245 41.129 68.1245C41.472 68.1245 41.815 68.0435 42.158 67.8816C42.501 67.7196 42.7582 67.5576 42.9297 67.3956L60.4229 50.9949L67.6259 57.7981L50.2614 74.3204C50.0042 74.4823 49.8121 74.7253 49.6852 75.0493C49.5548 75.3733 49.4897 75.6972 49.4897 76.0212C49.4897 76.6691 49.7469 77.2361 50.2614 77.722C50.7759 78.208 51.3762 78.4509 52.0622 78.4509C52.4052 78.4509 52.7276 78.3894 53.0294 78.2663C53.3279 78.1464 53.6057 77.965 53.8629 77.722L71.356 61.3213L78.5591 68.1245L61.066 84.6468C60.8087 84.8897 60.6166 85.1522 60.4897 85.434C60.3594 85.7191 60.2942 86.0236 60.2942 86.3476C60.2942 86.9955 60.5738 87.5625 61.1329 88.0484C61.6885 88.5344 62.3094 88.7773 62.9954 88.7773ZM62.8667 98.4963C59.694 98.4963 56.8865 97.5033 54.4443 95.5174C51.9987 93.5348 50.5615 91.0451 50.1328 88.0484C47.2173 87.6435 44.7734 86.5096 42.8011 84.6468C40.8289 82.784 39.6283 80.4757 39.1996 77.722C36.2841 77.3171 33.8625 76.1637 31.9348 74.2621C30.0037 72.3571 28.8238 70.0683 28.395 67.3956C25.1365 66.9907 22.4782 65.6543 20.4202 63.3865C18.3622 61.1188 17.3332 58.4461 17.3332 55.3684C17.3332 53.7486 17.6556 52.1887 18.3005 50.6887C18.9419 49.192 19.8629 47.8767 21.0634 46.7428L50.9045 18.6793L67.7545 34.5941C67.926 34.8371 68.1833 35.0185 68.5263 35.1384C68.8693 35.2615 69.2123 35.323 69.5553 35.323C70.327 35.323 70.9702 35.1011 71.4847 34.6573C71.9992 34.2102 72.2564 33.6222 72.2564 32.8933C72.2564 32.5693 72.193 32.2453 72.0661 31.9214C71.9357 31.5974 71.7419 31.3544 71.4847 31.1925L53.0912 13.8198C52.1479 12.8479 51.0538 12.1384 49.8087 11.6914C48.567 11.2475 47.2601 11.0256 45.8881 11.0256C44.6019 11.0256 43.3156 11.2475 42.0294 11.6914C40.7431 12.1384 39.5855 12.8479 38.5565 13.8198L20.4202 31.071C19.6485 31.7999 19.0053 32.6503 18.4908 33.6222C17.9763 34.5941 17.6333 35.566 17.4618 36.5379C17.2903 37.5098 17.2903 38.5011 17.4618 39.5119C17.6333 40.5259 17.9763 41.4784 18.4908 42.3693L11.0305 49.4155C9.57279 47.5527 8.50091 45.5069 7.8149 43.278C7.1289 41.0523 6.87165 38.8056 7.04315 36.5379C7.21465 34.2701 7.8149 32.0623 8.84391 29.9144C9.87292 27.7698 11.2878 25.847 13.0886 24.1462L31.2248 7.01653C33.2828 5.15373 35.5775 3.73638 38.1089 2.76449C40.6368 1.79259 43.2299 1.30664 45.8881 1.30664C48.5464 1.30664 51.1395 1.79259 53.6674 2.76449C56.1988 3.73638 58.4506 5.15373 60.4229 7.01653L61.8377 8.35289L63.2526 7.01653C65.3106 5.15373 67.6036 3.73638 70.1315 2.76449C72.6629 1.79259 75.2577 1.30664 77.916 1.30664C80.5742 1.30664 83.169 1.79259 85.7004 2.76449C88.2283 3.73638 90.4784 5.15373 92.4507 7.01653L114.188 27.5478C116.161 29.4106 117.661 31.5569 118.69 33.9867C119.719 36.4164 120.234 38.8866 120.234 41.3974C120.234 43.9081 119.719 46.3573 118.69 48.7449C117.661 51.1358 116.161 53.2626 114.188 55.1254L71.9992 94.8517C70.7987 95.9856 69.4044 96.8765 67.8163 97.5244C66.2316 98.1723 64.5818 98.4963 62.8667 98.4963Z" fill="#1C1B1F"/>
</g>
</g>
<defs>
<filter id="filter0_b_214_3188" x="2.9917" y="-2.69336" width="121.242" height="105.189" filterUnits="userSpaceOnUse" color-interpolation-filters="sRGB">
<feFlood flood-opacity="0" result="BackgroundImageFix"/>
<feGaussianBlur in="BackgroundImageFix" stdDeviation="2"/>
<feComposite in2="SourceAlpha" operator="in" result="effect1_backgroundBlur_214_3188"/>
<feBlend mode="normal" in="SourceGraphic" in2="effect1_backgroundBlur_214_3188" result="shape"/>
</filter>
</defs>
</svg>
