<svg width="11" height="9" viewBox="0 0 11 9" fill="none" xmlns="http://www.w3.org/2000/svg">
<path d="M5.62453 8.10628L10.8492 4.36832C10.9439 4.30074 10.9997 4.19142 11 4.07522C11 4.07436 11 4.07436 11 4.07436C10.9997 3.95743 10.9432 3.8484 10.8481 3.78054L5.62338 0.0666746C5.51334 -0.011657 5.36859 -0.0216993 5.24865 0.0404208C5.12886 0.101537 5.0534 0.225777 5.0534 0.361208V2.10904L0.360813 2.10889C0.161398 2.10889 0 2.27029 0 2.46985L0.000143386 5.70368C-7.88142e-08 5.90296 0.161398 6.0645 0.3611 6.06464H5.05325V7.81304C5.05325 7.9479 5.12929 8.07171 5.24922 8.13397C5.3693 8.19595 5.51435 8.18533 5.62453 8.10628Z" fill="black"/>
</svg>
