<svg width="14" height="16" viewBox="0 0 14 16" fill="none" xmlns="http://www.w3.org/2000/svg">
<path d="M4.06329 12.2438L4.58183 12.5811L4.80291 12.0034L5.41229 10.4109L5.52532 10.1156L5.30686 9.88686C4.91018 9.47161 4.58987 8.93725 4.35429 8.27005C4.11891 7.60339 4 6.8957 4 6.14386C4 5.29219 4.14824 4.50953 4.43988 3.79073L5.10716 2.1461L3.67951 3.20055C2.39892 4.14638 1.35946 5.55407 0.543279 7.38599L0.503679 7.47487C0.515143 7.30009 0.553054 7.14818 0.612523 7.01469C1.38651 5.29639 2.33666 3.96441 3.45234 2.99813C4.55507 2.04306 5.73338 1.58421 7 1.58421C7.41699 1.58421 7.84193 1.64172 8.27589 1.75891L8.71091 1.8764L8.87285 1.45589L9.17306 0.67631C9.24113 0.729364 9.30334 0.780421 9.35988 0.829468C9.44077 0.899623 9.52539 0.971467 9.61373 1.04499C9.64845 1.07389 9.67654 1.09745 9.69834 1.11591C9.1465 2.53893 8.33623 4.64086 7.26765 7.4214C6.17393 10.2674 5.35374 12.3978 4.80703 13.8129L4.80618 13.8151L4.5481 14.4928C4.40782 14.3834 4.22976 14.2396 4.01286 14.0604C4.02322 14.026 4.03794 13.9809 4.05789 13.9239C4.11121 13.7715 4.19362 13.5571 4.30705 13.2776L4.46144 12.8972L4.11833 12.6717C3.42638 12.217 2.77976 11.6061 2.18097 10.8302C1.58002 10.0516 1.05688 9.16431 0.613175 8.16572L0.612843 8.16498C0.553249 8.03145 0.515239 7.87947 0.503713 7.7046L0.543657 7.79381C1.44051 9.79679 2.60662 11.2962 4.06329 12.2438ZM13.4568 7.79284L13.4954 7.70599C13.4832 7.86219 13.446 8.01886 13.3817 8.17755C13.1904 8.63094 12.9191 9.15415 12.5636 9.74888C11.8114 10.9955 10.9519 11.9437 9.99189 12.6113C9.27077 13.1127 8.52564 13.4187 7.7523 13.5377L7.93968 13.0545C9.05007 12.8526 10.0677 12.2972 10.9895 11.4186C11.9851 10.4698 12.805 9.25671 13.4568 7.79284ZM13.3813 7.00023C13.4459 7.15938 13.4832 7.3165 13.4955 7.47315L13.4569 7.38642C12.8899 6.11065 12.1991 5.0292 11.3791 4.15162L11.468 3.92311C11.751 4.24955 12.0289 4.61268 12.3014 5.01331C12.7385 5.65608 13.0981 6.31835 13.3813 7.00023ZM7.875 3.25263C7.875 3.01864 7.81714 2.78702 7.67683 2.58419C7.53489 2.379 7.30691 2.21053 7 2.21053C6.14231 2.21053 5.44542 2.66722 4.91301 3.43688C4.38077 4.2063 4.125 5.11666 4.125 6.14386C4.125 6.37785 4.18286 6.60947 4.32317 6.8123C4.46511 7.01749 4.69309 7.18597 5 7.18597C5.30691 7.18597 5.53489 7.01749 5.67683 6.8123C5.81714 6.60947 5.875 6.37785 5.875 6.14386C5.875 5.58129 6.0117 5.13106 6.26277 4.76811C6.51306 4.40628 6.75712 4.29474 7 4.29474C7.30691 4.29474 7.53489 4.12627 7.67683 3.92107C7.81714 3.71824 7.875 3.48663 7.875 3.25263Z" fill="black" stroke="black"/>
</svg>
