<svg width="50" height="39" viewBox="0 0 50 39" fill="none" xmlns="http://www.w3.org/2000/svg">
<path d="M49.4667 14.2204C49.2326 13.9309 48.9324 13.6968 48.5892 13.5362C48.2459 13.3755 47.8689 13.2925 47.4869 13.2936H40.5589V8.03157C40.5581 7.41641 40.3031 6.82666 39.8496 6.39168C39.3962 5.95671 38.7814 5.71204 38.1401 5.71135H23.8759L22.016 1.42761C21.833 1.00435 21.5231 0.642735 21.1257 0.388585C20.7282 0.134435 20.261 -0.000805154 19.7834 3.60628e-06H2.41865C1.77741 0.000721003 1.16265 0.245402 0.709231 0.680372C0.255809 1.11534 0.00074783 1.70508 0 2.32022V38.9085H44.0285L49.9236 16.2875C50.0174 15.9324 50.0249 15.5614 49.9457 15.203C49.8665 14.8446 49.7026 14.5085 49.4667 14.2204ZM3.34891 35.6959V3.21263H19.1632L21.6435 8.92398H37.2102V13.2936H12.7245C12.1641 13.293 11.6197 13.4723 11.178 13.8031C10.7362 14.1339 10.4227 14.5971 10.2874 15.1187L4.92531 35.6959H3.34891ZM41.4138 35.6959H8.3773L13.3782 16.5063H46.4147L41.4138 35.6959Z" fill="black"/>
</svg>
