<svg width="147" height="74" viewBox="0 0 147 74" fill="none" xmlns="http://www.w3.org/2000/svg">
<path d="M0.0369571 22.3099L39.1364 0C59.1431 2.71209 74.9694 9.94733 80.6421 23.3395C84.7929 24.9483 90.8627 24.8397 95.3795 23.3395C98.3872 11.4411 114.504 3.49271 133.352 1.43329C134.418 1.46998 134.915 2.56973 133.577 2.91752C107.879 7.58238 101.114 15.3192 98.3132 23.907L57.9788 46.7215C51.8582 48.4715 44.5318 48.6397 40.0144 45.9422C35.3632 34.8396 19.6618 25.9997 0.723436 23.2232C0.116486 23.1033 -0.0931036 22.7894 0.0369571 22.3099ZM53.4411 56.4462C66.6972 58.3896 77.3872 64.5774 80.6427 72.3487C83.8046 74.2369 89.2336 74.1192 93.5181 72.8942L121.751 56.9247C123.711 50.9137 128.446 45.4981 146.434 42.2329C147.37 41.9895 147.022 41.2197 146.276 41.1941C133.084 42.6356 121.802 48.1992 119.697 56.5276C116.535 57.5777 112.287 57.6537 109.381 56.5276C105.411 47.1537 94.0324 41.7459 80.028 39.8475L52.6599 55.6353C52.5688 55.9711 53.0164 56.3623 53.4408 56.4462H53.4411ZM86.6668 21.1944C90.3358 13.041 99.5808 7.44281 105.279 4.19125C97.8572 7.01113 90.4527 10.6118 83.0602 14.7755C84.6528 16.3119 85.9089 18.6127 86.6668 21.1944ZM114.336 54.7978C117.26 48.3003 124.627 43.8389 129.168 41.2477C123.254 43.4947 117.353 46.3642 111.461 49.6824C112.73 50.9068 113.732 52.7405 114.336 54.798V54.7978Z" fill="black"/>
</svg>
