<svg width="19" height="19" viewBox="0 0 19 19" fill="none" xmlns="http://www.w3.org/2000/svg">
<circle cx="9.5" cy="9.5" r="9.5" fill="white"/>
<path d="M10.2483 6.04315C8.47372 6.04315 7.04153 7.47536 7.04153 9.25C7.04153 11.0246 8.47372 12.4569 10.2483 12.4569C12.0229 12.4569 13.4551 11.0246 13.4551 9.25C13.4551 7.47536 12.0229 6.04315 10.2483 6.04315ZM10.2483 11.3342C9.10069 11.3342 8.16414 10.3977 8.16414 9.25C8.16414 8.10235 9.10069 7.16578 10.2483 7.16578C11.3959 7.16578 12.3325 8.10235 12.3325 9.25C12.3325 10.3977 11.3959 11.3342 10.2483 11.3342ZM13.5865 5.16443C13.1721 5.16443 12.8375 5.49903 12.8375 5.91337C12.8375 6.32771 13.1721 6.66231 13.5865 6.66231C14.0008 6.66231 14.3354 6.32928 14.3354 5.91337C14.3355 5.81498 14.3162 5.71754 14.2786 5.62662C14.241 5.53569 14.1859 5.45308 14.1163 5.38351C14.0467 5.31394 13.9641 5.25878 13.8732 5.22119C13.7823 5.18359 13.6848 5.1643 13.5865 5.16443ZM16.4993 9.25C16.4993 8.38692 16.5071 7.53165 16.4587 6.67013C16.4102 5.66946 16.1819 4.78136 15.4502 4.04961C14.7169 3.3163 13.8304 3.08959 12.8297 3.04112C11.9666 2.99265 11.1114 3.00047 10.2499 3.00047C9.38682 3.00047 8.53157 2.99265 7.67006 3.04112C6.66941 3.08959 5.78132 3.31787 5.04959 4.04961C4.3163 4.78292 4.08959 5.66946 4.04112 6.67013C3.99265 7.53322 4.00047 8.38848 4.00047 9.25C4.00047 10.1115 3.99265 10.9683 4.04112 11.8299C4.08959 12.8305 4.31786 13.7186 5.04959 14.4504C5.78289 15.1837 6.66941 15.4104 7.67006 15.4589C8.53313 15.5074 9.38838 15.4995 10.2499 15.4995C11.113 15.4995 11.9682 15.5074 12.8297 15.4589C13.8304 15.4104 14.7184 15.1821 15.4502 14.4504C16.1835 13.7171 16.4102 12.8305 16.4587 11.8299C16.5087 10.9683 16.4993 10.1131 16.4993 9.25ZM15.1234 12.9369C15.0093 13.2214 14.8717 13.4341 14.6512 13.653C14.4308 13.8734 14.2197 14.011 13.9351 14.1252C13.1127 14.452 11.1599 14.3785 10.2483 14.3785C9.33678 14.3785 7.38237 14.452 6.55996 14.1267C6.2754 14.0126 6.06276 13.875 5.84386 13.6545C5.62341 13.4341 5.48582 13.223 5.37168 12.9384C5.04646 12.1144 5.11995 10.1616 5.11995 9.25C5.11995 8.33845 5.04646 6.384 5.37168 5.56157C5.48582 5.277 5.62341 5.06436 5.84386 4.84546C6.06432 4.62656 6.2754 4.48741 6.55996 4.37327C7.38237 4.04805 9.33678 4.12153 10.2483 4.12153C11.1599 4.12153 13.1143 4.04805 13.9367 4.37327C14.2212 4.48741 14.4339 4.625 14.6528 4.84546C14.8732 5.06592 15.0108 5.277 15.125 5.56157C15.4502 6.384 15.3767 8.33845 15.3767 9.25C15.3767 10.1616 15.4502 12.1144 15.1234 12.9369Z" fill="black"/>
</svg>
