<svg width="51" height="46" viewBox="0 0 51 46" fill="none" xmlns="http://www.w3.org/2000/svg">
<mask id="mask0_52_289" style="mask-type:alpha" maskUnits="userSpaceOnUse" x="0" y="0" width="51" height="46">
<rect width="51" height="46" fill="#D9D9D9"/>
</mask>
<g mask="url(#mask0_52_289)">
<path d="M26.181 34.3967C26.3235 34.3967 26.4661 34.3659 26.6086 34.3041C26.7512 34.2424 26.8581 34.1806 26.9294 34.1188L44.4633 18.9279C44.8909 18.5574 45.2031 18.1406 45.3998 17.6774C45.5951 17.2143 45.6928 16.7512 45.6928 16.288C45.6928 15.794 45.5951 15.3228 45.3998 14.8745C45.2031 14.4274 44.8909 14.0341 44.4633 13.6945L35.3756 5.8211C34.9835 5.45059 34.5295 5.18012 34.0135 5.00969C33.496 4.84049 32.9522 4.75589 32.382 4.75589C31.8474 4.75589 31.3128 4.84049 30.7783 5.00969C30.2437 5.18012 29.7626 5.45059 29.3349 5.8211L28.7469 6.33056L32.7027 9.80409C33.2373 10.2364 33.6293 10.7304 33.8788 11.2861C34.1282 11.8419 34.253 12.4285 34.253 13.0461C34.253 14.3428 33.7455 15.4309 32.7305 16.3103C31.7141 17.1908 30.4575 17.6311 28.9607 17.6311C28.248 17.6311 27.5623 17.5231 26.9037 17.3069C26.2437 17.0908 25.6642 16.7666 25.1653 16.3343L21.156 12.9071L11.801 21.012C11.6941 21.1047 11.6136 21.2053 11.5594 21.314C11.5066 21.4214 11.4803 21.5369 11.4803 21.6604C11.4803 21.9074 11.5872 22.131 11.801 22.3311C12.0148 22.5324 12.2643 22.633 12.5494 22.633C12.692 22.633 12.8345 22.6021 12.9771 22.5404C13.1196 22.4786 13.2265 22.4169 13.2978 22.3551L20.568 16.0565L23.5616 18.65L16.3449 24.9487C16.2379 25.0413 16.1574 25.1414 16.1032 25.2488C16.0505 25.3575 16.0241 25.4736 16.0241 25.5971C16.0241 25.8441 16.131 26.0602 16.3449 26.2455C16.5587 26.4308 16.8082 26.5234 17.0933 26.5234C17.2358 26.5234 17.3784 26.4925 17.5209 26.4308C17.6635 26.369 17.7704 26.3072 17.8417 26.2455L25.1118 19.9931L28.1054 22.5867L20.8887 28.8854C20.7818 28.9471 20.702 29.0398 20.6492 29.1633C20.5951 29.2868 20.568 29.4103 20.568 29.5338C20.568 29.7808 20.6749 29.9969 20.8887 30.1822C21.1025 30.3674 21.352 30.4601 21.6371 30.4601C21.7797 30.4601 21.9137 30.4366 22.0391 30.3897C22.1631 30.344 22.2786 30.2748 22.3855 30.1822L29.6557 23.9298L32.6493 26.5234L25.3791 32.8221C25.2722 32.9147 25.1924 33.0147 25.1396 33.1222C25.0854 33.2309 25.0584 33.347 25.0584 33.4705C25.0584 33.7175 25.1745 33.9336 25.4069 34.1188C25.6378 34.3041 25.8959 34.3967 26.181 34.3967ZM26.1275 38.1018C24.8089 38.1018 23.6421 37.7233 22.6271 36.9662C21.6107 36.2104 21.0134 35.2613 20.8353 34.1188C19.6236 33.9645 18.6079 33.5322 17.7882 32.8221C16.9685 32.1119 16.4696 31.232 16.2914 30.1822C15.0797 30.0278 14.0733 29.5881 13.2722 28.8632C12.4696 28.137 11.9792 27.2644 11.801 26.2455C10.4468 26.0911 9.34199 25.5817 8.48668 24.7171C7.63136 23.8526 7.20371 22.8337 7.20371 21.6604C7.20371 21.0429 7.33771 20.4482 7.6057 19.8764C7.87228 19.3058 8.25503 18.8044 8.75396 18.3721L21.156 7.67366L28.1589 13.7408C28.2301 13.8334 28.3371 13.9026 28.4796 13.9483C28.6222 13.9952 28.7647 14.0187 28.9073 14.0187C29.228 14.0187 29.4953 13.934 29.7091 13.7648C29.9229 13.5944 30.0299 13.3703 30.0299 13.0924C30.0299 12.9689 30.0035 12.8454 29.9507 12.7219C29.8966 12.5984 29.816 12.5057 29.7091 12.444L22.0648 5.8211C21.6727 5.45059 21.218 5.18012 20.7005 5.00969C20.1845 4.84049 19.6414 4.75589 19.0712 4.75589C18.5366 4.75589 18.002 4.84049 17.4675 5.00969C16.9329 5.18012 16.4518 5.45059 16.0241 5.8211L8.48668 12.3977C8.16593 12.6755 7.89865 12.9997 7.68482 13.3703C7.47099 13.7408 7.32844 14.1113 7.25716 14.4818C7.18589 14.8523 7.18589 15.2302 7.25716 15.6156C7.32844 16.0021 7.47099 16.3652 7.68482 16.7049L4.58431 19.3911C3.97847 18.6809 3.53299 17.901 3.24789 17.0513C2.96278 16.2028 2.85587 15.3463 2.92714 14.4818C2.99842 13.6173 3.24789 12.7756 3.67554 11.9568C4.1032 11.1392 4.69123 10.4062 5.43963 9.75778L12.9771 3.22753C13.8324 2.51739 14.7861 1.97706 15.8381 1.60655C16.8887 1.23604 17.9664 1.05078 19.0712 1.05078C20.1759 1.05078 21.2536 1.23604 22.3043 1.60655C23.3563 1.97706 24.2921 2.51739 25.1118 3.22753L25.6998 3.73698L26.2879 3.22753C27.1432 2.51739 28.0961 1.97706 29.1468 1.60655C30.1988 1.23604 31.2772 1.05078 32.382 1.05078C33.4867 1.05078 34.5652 1.23604 35.6172 1.60655C36.6678 1.97706 37.6029 2.51739 38.4226 3.22753L47.4569 11.0546C48.2765 11.7647 48.9002 12.5829 49.3279 13.5092C49.7555 14.4355 49.9693 15.3772 49.9693 16.3343C49.9693 17.2915 49.7555 18.2252 49.3279 19.1354C48.9002 20.0469 48.2765 20.8577 47.4569 21.5678L29.9229 36.7124C29.424 37.1447 28.8445 37.4843 28.1845 37.7313C27.5259 37.9783 26.8403 38.1018 26.1275 38.1018Z" fill="#1C1B1F"/>
</g>
</svg>
