<svg width="45" height="45" viewBox="0 0 45 45" fill="none" xmlns="http://www.w3.org/2000/svg">
<g clip-path="url(#clip0_1194_4435)">
<path d="M5.625 11.25H36.5625V22.5H5.625V11.25ZM5.625 5.625H36.5625V8.4375H5.625V5.625ZM22.5 36.5625H30.9375V39.375H22.5V36.5625ZM22.5 30.9375H36.5625V33.75H22.5V30.9375ZM22.5 25.3125H36.5625V28.125H22.5V25.3125ZM5.625 36.5625H19.6875V39.375H5.625V36.5625ZM5.625 30.9375H19.6875V33.75H5.625V30.9375ZM5.625 25.3125H19.6875V28.125H5.625V25.3125Z" fill="#2E2F31"/>
<path d="M42.1875 5.625V0H0V40.7812C0 41.9001 0.444474 42.9732 1.23564 43.7644C2.02681 44.5555 3.09987 45 4.21875 45H40.7812C41.9001 45 42.9732 44.5555 43.7644 43.7644C44.5555 42.9732 45 41.9001 45 40.7812V5.625H42.1875ZM4.21875 42.1875C3.84579 42.1875 3.4881 42.0393 3.22438 41.7756C2.96066 41.5119 2.8125 41.1542 2.8125 40.7812V2.8125H39.375V37.9688C39.375 42.1875 42.1875 42.1875 42.1875 42.1875H4.21875Z" fill="#2E2F31"/>
</g>
<defs>
<clipPath id="clip0_1194_4435">
<rect width="45" height="45" fill="white"/>
</clipPath>
</defs>
</svg>
