<svg width="33" height="30" viewBox="0 0 33 30" fill="none" xmlns="http://www.w3.org/2000/svg">
<path d="M11.5244 16.1878H13.1707V13.2446H14.8171C15.2835 13.2446 15.6748 13.1033 15.9909 12.8208C16.3059 12.5392 16.4634 12.1899 16.4634 11.773V10.3014C16.4634 9.88439 16.3059 9.53464 15.9909 9.25208C15.6748 8.97051 15.2835 8.82973 14.8171 8.82973H11.5244V16.1878ZM13.1707 11.773V10.3014H14.8171V11.773H13.1707ZM18.1098 16.1878H21.4024C21.8689 16.1878 22.2602 16.0466 22.5763 15.764C22.8913 15.4824 23.0488 15.1332 23.0488 14.7162V10.3014C23.0488 9.88439 22.8913 9.53464 22.5763 9.25208C22.2602 8.97051 21.8689 8.82973 21.4024 8.82973H18.1098V16.1878ZM19.7561 14.7162V10.3014H21.4024V14.7162H19.7561ZM24.6951 16.1878H26.3415V13.2446H27.9878V11.773H26.3415V10.3014H27.9878V8.82973H24.6951V16.1878ZM9.87805 23.5459C8.97256 23.5459 8.19768 23.258 7.55341 22.6821C6.90805 22.1052 6.58537 21.4121 6.58537 20.6027V2.94324C6.58537 2.13385 6.90805 1.44072 7.55341 0.863842C8.19768 0.287947 8.97256 0 9.87805 0H29.6341C30.5396 0 31.3151 0.287947 31.9604 0.863842C32.6047 1.44072 32.9268 2.13385 32.9268 2.94324V20.6027C32.9268 21.4121 32.6047 22.1052 31.9604 22.6821C31.3151 23.258 30.5396 23.5459 29.6341 23.5459H9.87805ZM9.87805 20.6027H29.6341V2.94324H9.87805V20.6027ZM3.29268 29.4324C2.3872 29.4324 1.61232 29.1445 0.968049 28.5686C0.322683 27.9917 0 27.2986 0 26.4892V5.88649H3.29268V26.4892H26.3415V29.4324H3.29268Z" fill="#1C1B1F"/>
</svg>
