<svg width="112" height="96" viewBox="0 0 112 96" fill="none" xmlns="http://www.w3.org/2000/svg">
<path d="M39.1829 53.02H44.7805V43.481H50.3781C51.964 43.481 53.2944 43.0232 54.3691 42.1074C55.4401 41.1949 55.9756 40.0629 55.9756 38.7115V33.9421C55.9756 32.5907 55.4401 31.4572 54.3691 30.5414C53.2944 29.6289 51.964 29.1726 50.3781 29.1726H39.1829V53.02ZM44.7805 38.7115V33.9421H50.3781V38.7115H44.7805ZM61.5732 53.02H72.7683C74.3543 53.02 75.6846 52.5621 76.7594 51.6464C77.8304 50.7338 78.3659 49.6019 78.3659 48.2505V33.9421C78.3659 32.5907 77.8304 31.4572 76.7594 30.5414C75.6846 29.6289 74.3543 29.1726 72.7683 29.1726H61.5732V53.02ZM67.1707 48.2505V33.9421H72.7683V48.2505H67.1707ZM83.9634 53.02H89.561V43.481H95.1585V38.7115H89.561V33.9421H95.1585V29.1726H83.9634V53.02ZM33.5854 76.8674C30.5067 76.8674 27.8721 75.9342 25.6816 74.0677C23.4874 72.1981 22.3902 69.9517 22.3902 67.3284V10.0946C22.3902 7.47142 23.4874 5.22499 25.6816 3.35535C27.8721 1.48889 30.5067 0.555664 33.5854 0.555664H100.756C103.835 0.555664 106.471 1.48889 108.665 3.35535C110.856 5.22499 111.951 7.47142 111.951 10.0946V67.3284C111.951 69.9517 110.856 72.1981 108.665 74.0677C106.471 75.9342 103.835 76.8674 100.756 76.8674H33.5854ZM33.5854 67.3284H100.756V10.0946H33.5854V67.3284ZM11.1951 95.9454C8.11646 95.9454 5.48188 95.0121 3.29137 93.1457C1.09712 91.276 0 89.0296 0 86.4064V19.6336H11.1951V86.4064H89.561V95.9454H11.1951Z" fill="#1C1B1F"/>
</svg>
