<svg width="16" height="15" viewBox="0 0 16 15" fill="none" xmlns="http://www.w3.org/2000/svg">
<path d="M0 2.9C0 2.1025 0.8 1.45 1.77778 1.45H14.2222C14.6937 1.45 15.1459 1.60277 15.4793 1.8747C15.8127 2.14662 16 2.51544 16 2.9V13.05C16 13.4346 15.8127 13.8034 15.4793 14.0753C15.1459 14.3472 14.6937 14.5 14.2222 14.5H1.77778C1.30628 14.5 0.854097 14.3472 0.520699 14.0753C0.187301 13.8034 0 13.4346 0 13.05V2.9ZM1.77778 4.35V13.05H14.2222V4.35H1.77778ZM3.55556 0H5.33333V1.45H3.55556V0ZM10.6667 0H12.4444V1.45H10.6667V0ZM3.55556 6.525H5.33333V7.975H3.55556V6.525ZM3.55556 9.425H5.33333V10.875H3.55556V9.425ZM7.11111 6.525H8.88889V7.975H7.11111V6.525ZM7.11111 9.425H8.88889V10.875H7.11111V9.425ZM10.6667 6.525H12.4444V7.975H10.6667V6.525ZM10.6667 9.425H12.4444V10.875H10.6667V9.425Z" fill="black"/>
</svg>
