<svg width="38" height="40" viewBox="0 0 38 40" fill="none" xmlns="http://www.w3.org/2000/svg">
<path d="M18.6087 24.8452H18.6092C19.9596 24.8437 21.2541 24.3066 22.209 23.3518C23.1638 22.397 23.7009 21.1024 23.7024 19.752V19.7515C23.7024 18.744 23.4037 17.7592 22.844 16.9215C22.2842 16.0839 21.4887 15.431 20.558 15.0455C19.6272 14.6599 18.603 14.559 17.6149 14.7556C16.6268 14.9521 15.7192 15.4373 15.0068 16.1496C14.2945 16.862 13.8093 17.7696 13.6128 18.7577C13.4162 19.7458 13.5171 20.77 13.9026 21.7008C14.2882 22.6315 14.9411 23.4271 15.7787 23.9868C16.6164 24.5465 17.6012 24.8452 18.6087 24.8452ZM14.8759 14.165C15.9807 13.4268 17.2796 13.0328 18.6084 13.0327C20.3897 13.0348 22.0975 13.7434 23.3571 15.003C24.6168 16.2627 25.3254 17.9706 25.3274 19.752C25.3273 21.0807 24.9333 22.3795 24.1951 23.4842C23.4568 24.5891 22.4075 25.4503 21.1798 25.9588C19.9521 26.4673 18.6012 26.6004 17.2979 26.3411C15.9946 26.0819 14.7974 25.442 13.8578 24.5024C12.9181 23.5627 12.2782 22.3656 12.019 21.0622C11.7598 19.7589 11.8928 18.408 12.4013 17.1803C12.9099 15.9526 13.771 14.9033 14.8759 14.165Z" fill="black" stroke="#0072F8"/>
<path d="M36.3015 25.5784L36.3007 25.5778L33.6946 23.4324L33.4601 23.2394L33.5233 22.9424C33.9707 20.8386 33.9707 18.6644 33.5233 16.5606L33.4601 16.2636L33.6946 16.0706L36.3007 13.9252L36.3016 13.9245C36.5103 13.7535 36.6513 13.5138 36.6994 13.2483C36.7475 12.9828 36.6995 12.7089 36.564 12.4756L36.5633 12.4745L33.8881 7.8411L33.8874 7.83989C33.7532 7.60583 33.5399 7.42724 33.2859 7.33614C33.032 7.24503 32.7538 7.24736 32.5014 7.3427L32.5002 7.34317L29.3369 8.52828L29.0521 8.63501L28.8263 8.43106C27.2308 6.98951 25.3485 5.9016 23.3029 5.2387L23.0139 5.14503L22.9639 4.8453L22.4088 1.51721L22.4086 1.51579C22.365 1.24951 22.228 1.00746 22.0221 0.833045M36.3015 25.5784L22.0221 0.833045M36.3015 25.5784C36.5101 25.7494 36.6511 25.9891 36.6991 26.2546C36.7471 26.52 36.699 26.7939 36.5635 27.0271L36.5628 27.0283L33.8879 31.662L33.8872 31.6632C33.7529 31.8972 33.5397 32.0757 33.2858 32.1669C33.0318 32.258 32.7537 32.2557 32.5013 32.1604L32.5002 32.16L29.3367 30.9747L29.0518 30.868L28.8261 31.0719C27.2305 32.5135 25.3482 33.6014 23.3027 34.2643L23.0136 34.358L22.9636 34.6577L22.4088 37.9859L22.4086 37.9873C22.365 38.2535 22.2279 38.4956 22.0221 38.67C21.8162 38.8444 21.5549 38.9398 21.2851 38.939H21.2837H15.9335H15.9322C15.6623 38.9397 15.4011 38.8443 15.1952 38.6699C14.9893 38.4955 14.8523 38.2535 14.8087 37.9872L14.8084 37.9858L14.2537 34.6577L14.2038 34.358L13.9147 34.2643C11.8691 33.6014 9.9868 32.5135 8.39128 31.0719L8.16555 30.868L7.88067 30.9747L4.71737 32.1598L4.71614 32.1603C4.46371 32.2556 4.18558 32.2579 3.93159 32.1668C3.6776 32.0757 3.46436 31.8971 3.33009 31.6631L3.3294 31.6619L0.654194 27.0285L0.653581 27.0275C0.518101 26.7941 0.470103 26.5202 0.518184 26.2547C0.566265 25.9892 0.707284 25.7495 0.915991 25.5785L0.916882 25.5778L3.52302 23.4324L3.75748 23.2394L3.6943 22.9424C3.24689 20.8386 3.24689 18.6644 3.6943 16.5606L3.75747 16.2636L3.52302 16.0706L0.917132 13.9254L0.916162 13.9246C0.707432 13.7537 0.566381 13.514 0.51827 13.2485C0.470158 12.983 0.518131 12.7091 0.653596 12.4758L0.654204 12.4747L3.32933 7.841L3.33 7.83982C3.46427 7.6058 3.67747 7.42723 3.93142 7.33612L3.76256 6.86549M36.3015 25.5784L3.76256 6.86549M22.0221 0.833045C21.8162 0.658626 21.5549 0.563235 21.2851 0.563969L21.2837 0.563973L15.9335 0.563971H15.9321C15.6623 0.563244 15.401 0.658634 15.1952 0.833044C14.9893 1.00745 14.8522 1.24948 14.8086 1.51576L14.8084 1.51708L14.2537 4.84525L14.2037 5.14502L13.9146 5.2387C11.869 5.90158 9.98672 6.98949 8.3912 8.43106L8.16547 8.63501L7.88058 8.52828L4.71704 7.34301L4.71588 7.34257C4.46347 7.24729 4.18537 7.245 3.93142 7.33612L3.76256 6.86549M22.0221 0.833045L3.76256 6.86549M15.9335 39.439H21.2837C21.6724 39.4401 22.0487 39.3027 22.3452 39.0515L15.9335 39.439ZM21.2837 0.0639709H15.9335H21.2837ZM32.2893 30.3456L32.686 30.4942L32.8978 30.1273L34.7389 26.9381L34.9507 26.5713L34.6237 26.3021L31.622 23.8312L31.7592 23.3246L31.7592 23.3244C32.3914 20.9844 32.3914 18.5186 31.7592 16.1786L31.7592 16.1784L31.622 15.6719L34.6237 13.2008L34.9507 12.9316L34.7389 12.5648L32.8975 9.37562L32.6857 9.00881L32.2891 9.15741L28.6452 10.5226L28.2754 10.1504C28.2753 10.1503 28.2753 10.1502 28.2752 10.1502C26.5684 8.42991 24.4335 7.19612 22.0909 6.57608L22.0904 6.57596L21.5827 6.44212L20.9433 2.60676L20.8737 2.18897H20.4501H16.7674H16.3438L16.2742 2.60677L15.6349 6.44212L15.1272 6.57596L15.1267 6.57609C12.784 7.19615 10.649 8.43001 8.94219 10.1504L8.57245 10.5226L4.92851 9.15741L4.53186 9.00881L4.32008 9.37563L2.4788 12.5648L2.26702 12.9317L2.59403 13.2009L5.59566 15.6719L5.45853 16.1784L5.45846 16.1786C4.82628 18.5186 4.82628 20.9844 5.45846 23.3244L5.45852 23.3246L5.59566 23.8312L2.59403 26.3022L2.26705 26.5714L2.47878 26.9382L4.31964 30.1273L4.5314 30.4942L4.92807 30.3456L8.57269 28.9804L8.94243 29.3526C8.9425 29.3527 8.94257 29.3527 8.94265 29.3528C10.6495 31.0731 12.7843 32.3069 15.127 32.9269L15.1275 32.927L15.6352 33.0609L16.2745 36.8962L16.3442 37.314H16.7677H20.4501H20.8736L20.9433 36.8963L21.5829 33.0609L22.0906 32.927L22.0911 32.9269C24.4338 32.3069 26.5686 31.0731 28.2755 29.3528C28.2755 29.3527 28.2756 29.3527 28.2757 29.3526L28.6454 28.9804L32.2893 30.3456Z" fill="black" stroke="#0072F8"/>
</svg>
