<svg width="19" height="23" viewBox="0 0 19 23" fill="none" xmlns="http://www.w3.org/2000/svg">
<path d="M18.0938 4.75H14.9688V2.64062C14.9688 1.70986 14.2681 0.953125 13.4062 0.953125H5.59375C4.73193 0.953125 4.03125 1.70986 4.03125 2.64062V4.75H0.90625C0.474121 4.75 0.125 5.12705 0.125 5.59375V6.4375C0.125 6.55352 0.212891 6.64844 0.320312 6.64844H1.79492L2.39795 20.4385C2.43701 21.3376 3.12549 22.0469 3.95801 22.0469H15.042C15.877 22.0469 16.563 21.3402 16.6021 20.4385L17.2051 6.64844H18.6797C18.7871 6.64844 18.875 6.55352 18.875 6.4375V5.59375C18.875 5.12705 18.5259 4.75 18.0938 4.75ZM13.2109 4.75H5.78906V2.85156H13.2109V4.75Z" fill="black"/>
</svg>
