<svg width="12" height="12" viewBox="0 0 12 12" fill="none" xmlns="http://www.w3.org/2000/svg">
<path d="M8.37857 0.414844L8.57143 0.75H11.1429C11.617 0.75 12 1.08516 12 1.5C12 1.91484 11.617 2.25 11.1429 2.25H0.857142C0.383036 2.25 0 1.91484 0 1.5C0 1.08516 0.383036 0.75 0.857142 0.75H3.42857L3.62143 0.414844C3.76607 0.159375 4.06339 0 4.3875 0H7.6125C7.93661 0 8.23393 0.159375 8.37857 0.414844ZM0.857142 3H11.1429L10.575 10.9453C10.5321 11.5383 9.96964 12 9.29196 12H2.70804C2.03036 12 1.46786 11.5383 1.425 10.9453L0.857142 3Z" fill="black"/>
</svg>
