<svg width="33" height="27" viewBox="0 0 33 27" fill="none" xmlns="http://www.w3.org/2000/svg">
<path d="M27.8655 11.4868C29.4467 11.8962 30.8399 12.9523 31.7794 14.4538C32.7189 15.9553 33.1389 17.7972 32.9594 19.628C32.7799 21.4588 32.0133 23.1505 30.806 24.3804C29.5986 25.6102 28.035 26.2922 26.4132 26.2963H8.25985C6.21355 26.2986 4.23948 25.4372 2.72087 23.8792C1.20226 22.3212 0.247445 20.1779 0.0417947 17.8652C-0.163856 15.5525 0.394324 13.2356 1.60798 11.3641C2.82163 9.49262 4.60417 8.20016 6.60954 7.73761V7.55015C6.6085 6.55871 6.83822 5.58458 7.2754 4.72648C7.71259 3.86839 8.34171 3.15682 9.099 2.66391C9.85629 2.17099 10.7148 1.91424 11.5876 1.91969C12.4604 1.92513 13.3165 2.19256 14.0689 2.69489C15.227 1.39515 16.6987 0.515344 18.2975 0.167067C19.8964 -0.181209 21.5502 0.0177325 23.0494 0.738661C24.5486 1.45959 25.8255 2.67002 26.7181 4.21645C27.6108 5.76287 28.0791 7.57561 28.0635 9.42476C28.0635 10.1371 27.9975 10.812 27.8655 11.4868ZM18.1617 15.0486H23.1126L16.5114 7.55015L9.91016 15.0486H14.8611V20.6724H18.1617V15.0486Z" fill="black"/>
</svg>
