<svg width="35" height="46" viewBox="0 0 35 46" fill="none" xmlns="http://www.w3.org/2000/svg">
<path d="M30.8599 31.181L30.8591 31.1805L24.0223 26.7367L23.6341 26.4844L23.8558 26.078L26.4332 21.3528C26.9942 20.3226 27.2885 19.1683 27.2894 17.9952V10.5149C27.2894 7.85877 26.2342 5.31145 24.3561 3.43329C22.4779 1.55514 19.9306 0.5 17.2745 0.5C14.6184 0.5 12.071 1.55514 10.1929 3.43329C8.31472 5.31145 7.25958 7.85877 7.25958 10.5149V17.9952C7.26046 19.1682 7.55472 20.3224 8.11558 21.3526L30.8599 31.181ZM30.8599 31.181C31.8404 31.8158 32.6461 32.6863 33.2032 33.713C33.7603 34.7396 34.0511 35.8896 34.0489 37.0577V37.0586V44.5638H0.500013L0.500014 37.0586L0.500012 37.0576C0.497808 35.8896 0.788573 34.7396 1.3457 33.713C1.90283 32.6863 2.70852 31.8158 3.68907 31.181L3.68984 31.1805L10.5267 26.7367L10.9148 26.4844L10.6931 26.078L8.11576 21.3529L30.8599 31.181ZM32.0447 42.5595H31.5447H3.00427H2.50427V42.0595V37.059V37.0586H3.00427C3.00286 36.3076 3.18982 35.5682 3.54805 34.9081L32.0447 42.5595ZM32.0447 42.5595V42.0595L32.0447 37.0595M32.0447 42.5595L32.0447 37.0595M32.0447 37.0595C32.0447 37.0592 32.0447 37.0589 32.0447 37.0586C32.0461 36.2243 31.8384 35.403 31.4405 34.6697C31.0424 33.9361 30.4668 33.3141 29.7662 32.8605L32.0447 37.0595Z" fill="black" stroke="#0072F8"/>
</svg>
