<svg width="20" height="14" viewBox="0 0 20 14" fill="none" xmlns="http://www.w3.org/2000/svg">
<path d="M15.81 7.38997C17.5704 5.94396 18.7116 3.8798 19 1.61997C19.0157 1.48865 19.0055 1.35551 18.9698 1.22815C18.9341 1.1008 18.8736 0.98172 18.7919 0.877718C18.7102 0.773717 18.6088 0.686829 18.4935 0.622015C18.3782 0.557201 18.2513 0.515731 18.12 0.499972C17.9887 0.484214 17.8555 0.494475 17.7282 0.530171C17.6008 0.565866 17.4817 0.626297 17.3777 0.708012C17.2737 0.789728 17.1868 0.891128 17.122 1.00642C17.0572 1.12172 17.0157 1.24865 17 1.37997C16.7609 3.06626 15.9211 4.60956 14.6351 5.72615C13.349 6.84274 11.7031 7.45755 9.99997 7.45755C8.29683 7.45755 6.65092 6.84274 5.36486 5.72615C4.07881 4.60956 3.23904 3.06626 2.99997 1.37997C2.98421 1.24865 2.94274 1.12172 2.87793 1.00642C2.81312 0.891128 2.72623 0.789728 2.62223 0.708012C2.51822 0.626297 2.39915 0.565866 2.27179 0.530171C2.14443 0.494475 2.01129 0.484214 1.87997 0.499972C1.74865 0.515731 1.62172 0.557201 1.50642 0.622015C1.39113 0.686829 1.28973 0.773717 1.20801 0.877718C1.1263 0.98172 1.06587 1.1008 1.03017 1.22815C0.994475 1.35551 0.984214 1.48865 0.999972 1.61997C1.28581 3.87831 2.4233 5.94225 4.17997 7.38997L1.87997 9.70997C1.71615 9.90127 1.63054 10.1473 1.64026 10.399C1.64998 10.6507 1.75431 10.8894 1.93241 11.0675C2.1105 11.2456 2.34924 11.35 2.60092 11.3597C2.8526 11.3694 3.09867 11.2838 3.28997 11.12L5.89997 8.51997C6.86978 9.01006 7.91983 9.32168 8.99997 9.43997V13C8.99997 13.2652 9.10533 13.5195 9.29287 13.7071C9.4804 13.8946 9.73476 14 9.99997 14C10.2652 14 10.5195 13.8946 10.7071 13.7071C10.8946 13.5195 11 13.2652 11 13V9.43997C12.0801 9.32168 13.1302 9.01006 14.1 8.51997L16.71 11.12C16.9013 11.2838 17.1473 11.3694 17.399 11.3597C17.6507 11.35 17.8894 11.2456 18.0675 11.0675C18.2456 10.8894 18.35 10.6507 18.3597 10.399C18.3694 10.1473 18.2838 9.90127 18.12 9.70997L15.81 7.38997Z" fill="black"/>
</svg>
