<svg width="20" height="19" viewBox="0 0 20 19" fill="none" xmlns="http://www.w3.org/2000/svg">
<path fill-rule="evenodd" clip-rule="evenodd" d="M14.5823 11.3858C14.3328 11.2678 13.1095 10.6994 12.8817 10.6202C12.6539 10.5418 12.4881 10.5031 12.3215 10.739C12.1557 10.9733 11.6793 11.5037 11.5344 11.6605C11.3887 11.818 11.2438 11.837 10.9952 11.7198C10.7465 11.6011 9.94429 11.3533 8.99391 10.5521C8.25453 9.92831 7.75464 9.15802 7.60978 8.9221C7.46492 8.68698 7.59387 8.55952 7.71863 8.44235C7.83084 8.33706 7.96732 8.16764 8.09209 8.03069C8.21685 7.89294 8.25788 7.79477 8.34078 7.63723C8.42451 7.48048 8.38265 7.34352 8.31985 7.22556C8.25788 7.1076 7.7605 5.9494 7.55284 5.47836C7.35104 5.01998 7.14589 5.08252 6.99349 5.07461C6.8478 5.06827 6.682 5.06669 6.51621 5.06669C6.35041 5.06669 6.08079 5.12527 5.85303 5.36119C5.62444 5.59631 4.98219 6.16552 4.98219 7.32373C4.98219 8.48114 5.87313 9.59977 5.99789 9.75731C6.12266 9.91406 7.75213 12.2906 10.2482 13.3095C10.8428 13.5518 11.3058 13.6966 11.6667 13.8043C12.2629 13.984 12.8055 13.9587 13.2342 13.8977C13.7115 13.8304 14.7063 13.3285 14.9139 12.7791C15.1208 12.2297 15.1207 11.7586 15.0588 11.6605C14.9968 11.5623 14.831 11.5037 14.5815 11.3858H14.5823ZM10.0423 17.2465H10.0389C8.55634 17.2467 7.10098 16.8699 5.8254 16.1555L5.52396 15.9861L2.39062 16.7635L3.22712 13.8756L3.03035 13.5795C2.20149 12.3321 1.76286 10.8884 1.76512 9.41531C1.76679 5.10073 5.47958 1.59049 10.0456 1.59049C12.2562 1.59049 14.3345 2.4059 15.897 3.88473C16.6676 4.61036 17.2785 5.47326 17.6941 6.42352C18.1098 7.37378 18.322 8.39254 18.3186 9.42085C18.3169 13.7354 14.6041 17.2465 10.0423 17.2465V17.2465ZM17.086 2.76136C16.1634 1.88334 15.0657 1.18716 13.8564 0.713165C12.6472 0.239166 11.3505 -0.00322702 10.0414 3.24405e-05C4.55347 3.24405e-05 0.085409 4.22357 0.0837344 9.41452C0.0811914 11.0665 0.539563 12.6899 1.4126 14.121L0 19L5.27861 17.6906C6.73884 18.4428 8.37519 18.8369 10.0381 18.8369H10.0423C15.5302 18.8369 19.9983 14.6134 20 9.42164C20.004 8.18449 19.7485 6.95885 19.2484 5.81563C18.7482 4.67241 18.0132 3.63431 17.086 2.76136" fill="#058A31"/>
</svg>
